<?xml version="1.0" encoding="UTF-8" standalone="no"?><svg xmlns="http://www.w3.org/2000/svg" xmlns:xlink="http://www.w3.org/1999/xlink" contentStyleType="text/css" height="507.2917px" preserveAspectRatio="none" style="width:460px;height:507px;" version="1.1" viewBox="0 0 460 507" width="460.4167px" zoomAndPan="magnify"><defs><linearGradient id="g1hgsieecudzlo0" x1="50%" x2="50%" y1="0%" y2="100%"><stop offset="0%" stop-color="#B8B8B8"/><stop offset="100%" stop-color="#6B6B6B"/></linearGradient></defs><g><!--entity Proxy--><g id="elem_Proxy"><rect fill="url(#g1hgsieecudzlo0)" height="45.8008" rx="4.1667" ry="4.1667" style="stroke:#304D6D;stroke-width:2.0833333333333335;" width="65.625" x="147.3958" y="17.7083"/><text fill="#FFFFFF" font-family="&quot;Verdana&quot;" font-size="12.5" lengthAdjust="spacing" textLength="34.375" x="163.0208" y="44.9361">Proxy</text></g><!--entity Wrapped--><g id="elem_Wrapped"><rect fill="url(#g1hgsieecudzlo0)" height="45.8008" rx="4.1667" ry="4.1667" style="stroke:#304D6D;stroke-width:2.0833333333333335;" width="89.5833" x="135.4167" y="126.0417"/><text fill="#FFFFFF" font-family="&quot;Verdana&quot;" font-size="12.5" lengthAdjust="spacing" textLength="58.3333" x="151.0417" y="153.2694">Wrapped</text></g><!--entity Frozen--><g id="elem_Frozen"><rect fill="url(#g1hgsieecudzlo0)" height="45.8008" rx="4.1667" ry="4.1667" style="stroke:#304D6D;stroke-width:2.0833333333333335;" width="73.9583" x="88.0208" y="234.375"/><text fill="#FFFFFF" font-family="&quot;Verdana&quot;" font-size="12.5" lengthAdjust="spacing" textLength="42.7083" x="103.6458" y="261.6028">Frozen</text></g><!--entity Private--><g id="elem_Private"><rect fill="url(#g1hgsieecudzlo0)" height="45.8008" rx="4.1667" ry="4.1667" style="stroke:#304D6D;stroke-width:2.0833333333333335;" width="76.0417" x="198.4375" y="234.375"/><text fill="#FFFFFF" font-family="&quot;Verdana&quot;" font-size="12.5" lengthAdjust="spacing" textLength="44.7917" x="214.0625" y="261.6028">Private</text></g><!--entity PrivacyDict--><g id="elem_PrivacyDict"><rect fill="url(#g1hgsieecudzlo0)" height="45.8008" rx="4.1667" ry="4.1667" style="stroke:#304D6D;stroke-width:2.0833333333333335;" width="101.0417" x="39.0625" y="342.7083"/><text fill="#FFFFFF" font-family="&quot;Verdana&quot;" font-size="12.5" lengthAdjust="spacing" textLength="69.7917" x="54.6875" y="369.9361">PrivacyDict</text></g><!--entity FrozenPrivacyDict--><g id="elem_FrozenPrivacyDict"><rect fill="url(#g1hgsieecudzlo0)" height="45.8008" rx="4.1667" ry="4.1667" style="stroke:#304D6D;stroke-width:2.0833333333333335;" width="143.75" x="17.7083" y="451.0417"/><text fill="#FFFFFF" font-family="&quot;Verdana&quot;" font-size="12.5" lengthAdjust="spacing" textLength="112.5" x="33.3333" y="478.2694">FrozenPrivacyDict</text></g><!--entity FrozenPrivate--><g id="elem_FrozenPrivate"><rect fill="url(#g1hgsieecudzlo0)" height="45.8008" rx="4.1667" ry="4.1667" style="stroke:#304D6D;stroke-width:2.0833333333333335;" width="118.75" x="177.0833" y="342.7083"/><text fill="#FFFFFF" font-family="&quot;Verdana&quot;" font-size="12.5" lengthAdjust="spacing" textLength="87.5" x="192.7083" y="369.9361">FrozenPrivate</text></g><!--entity Protected--><g id="elem_Protected"><rect fill="url(#g1hgsieecudzlo0)" height="45.8008" rx="4.1667" ry="4.1667" style="stroke:#304D6D;stroke-width:2.0833333333333335;" width="95.8333" x="332.2917" y="342.7083"/><text fill="#FFFFFF" font-family="&quot;Verdana&quot;" font-size="12.5" lengthAdjust="spacing" textLength="64.5833" x="347.9167" y="369.9361">Protected</text></g><!--entity FrozenProtected--><g id="elem_FrozenProtected"><rect fill="url(#g1hgsieecudzlo0)" height="45.8008" rx="4.1667" ry="4.1667" style="stroke:#304D6D;stroke-width:2.0833333333333335;" width="138.5417" x="310.9375" y="451.0417"/><text fill="#FFFFFF" font-family="&quot;Verdana&quot;" font-size="12.5" lengthAdjust="spacing" textLength="107.2917" x="326.5625" y="478.2694">FrozenProtected</text></g><!--link Proxy to Wrapped--><g id="link_Proxy_Wrapped"><path d="M180.2083,63.6771 C180.2083,80.2083 180.2083,102.9375 180.2083,120.6146 " fill="none" id="Proxy-to-Wrapped" style="stroke:#446E9B;stroke-width:3.125;"/><polygon fill="#446E9B" points="180.2083,125.9271,184.375,116.5521,180.2083,120.7188,176.0417,116.5521,180.2083,125.9271" style="stroke:#446E9B;stroke-width:3.125;"/></g><!--link Wrapped to Frozen--><g id="link_Wrapped_Frozen"><path d="M168.7708,172.0104 C160.1042,188.6875 148.1667,211.6563 138.9479,229.4063 " fill="none" id="Wrapped-to-Frozen" style="stroke:#446E9B;stroke-width:3.125;"/><polygon fill="#446E9B" points="136.4271,234.2604,144.4373,227.8504,138.8215,229.6351,137.0368,224.0193,136.4271,234.2604" style="stroke:#446E9B;stroke-width:3.125;"/></g><!--link Wrapped to Private--><g id="link_Wrapped_Private"><path d="M191.8646,172.0104 C200.6875,188.6875 212.8542,211.6563 222.25,229.4063 " fill="none" id="Wrapped-to-Private" style="stroke:#446E9B;stroke-width:3.125;"/><polygon fill="#446E9B" points="224.8229,234.2604,224.1083,224.0261,222.3812,229.6599,216.7474,227.9328,224.8229,234.2604" style="stroke:#446E9B;stroke-width:3.125;"/></g><!--link Private to PrivacyDict--><g id="link_Private_PrivacyDict"><path d="M206.0208,280.3438 C182.1979,297.5833 149.0417,321.5729 124.1979,339.5417 " fill="none" id="Private-to-PrivacyDict" style="stroke:#446E9B;stroke-width:3.125;"/><polygon fill="#446E9B" points="119.9792,342.5938,130.0194,340.4852,124.2022,339.5454,125.142,333.7283,119.9792,342.5938" style="stroke:#446E9B;stroke-width:3.125;"/></g><!--link Private to FrozenPrivate--><g id="link_Private_FrozenPrivate"><path d="M236.4583,280.3438 C236.4583,296.875 236.4583,319.6042 236.4583,337.2813 " fill="none" id="Private-to-FrozenPrivate" style="stroke:#446E9B;stroke-width:3.125;"/><polygon fill="#446E9B" points="236.4583,342.5938,240.625,333.2188,236.4583,337.3854,232.2917,333.2188,236.4583,342.5938" style="stroke:#446E9B;stroke-width:3.125;"/></g><!--link Private to Protected--><g id="link_Private_Protected"><path d="M266.2396,280.3438 C289.4688,297.5104 321.75,321.375 346.0208,339.3125 " fill="none" id="Private-to-Protected" style="stroke:#446E9B;stroke-width:3.125;"/><polygon fill="#446E9B" points="350.4583,342.5938,345.3869,333.6757,346.2668,339.5021,340.4403,340.3821,350.4583,342.5938" style="stroke:#446E9B;stroke-width:3.125;"/></g><!--link PrivacyDict to FrozenPrivacyDict--><g id="link_PrivacyDict_FrozenPrivacyDict"><path d="M89.5833,388.6771 C89.5833,405.2083 89.5833,427.9375 89.5833,445.6146 " fill="none" id="PrivacyDict-to-FrozenPrivacyDict" style="stroke:#446E9B;stroke-width:3.125;"/><polygon fill="#446E9B" points="89.5833,450.9271,93.75,441.5521,89.5833,445.7188,85.4167,441.5521,89.5833,450.9271" style="stroke:#446E9B;stroke-width:3.125;"/></g><!--link Protected to FrozenProtected--><g id="link_Protected_FrozenProtected"><path d="M380.2083,388.6771 C380.2083,405.2083 380.2083,427.9375 380.2083,445.6146 " fill="none" id="Protected-to-FrozenProtected" style="stroke:#446E9B;stroke-width:3.125;"/><polygon fill="#446E9B" points="380.2083,450.9271,384.375,441.5521,380.2083,445.7188,376.0417,441.5521,380.2083,450.9271" style="stroke:#446E9B;stroke-width:3.125;"/></g><!--SRC=[XO-zSiCW48Hxdk9IgP8V84MQP5AdItr6Dn8sVmCdZSdJ1tcG38fdKi5-Utii7Rm7GYQG6cCS58u1pIak8ynHsH6aCmRjy2ewkE22q5ymWDTeUJRwj8gUr-acxhCdkXUUo12SzKoPfXt4Ax6SajYaHqaQpqB4gx8UymBGoX8dJ-2TJgiGtHFJ1PwS0158CjfH4tm5TqkL_WxeFGqL-GpkXsmJKKl-_v78zA4a_md-wnqsESxYIO678-wTeU_VzhRblBFIjqRREw9S7h0KgtbRhKrK5VRmCRIlBCEDlotu1G00]--></g></svg>