<?xml version="1.0" encoding="UTF-8" standalone="no"?><svg xmlns="http://www.w3.org/2000/svg" xmlns:xlink="http://www.w3.org/1999/xlink" contentStyleType="text/css" height="507.2917px" preserveAspectRatio="none" style="width:460px;height:507px;" version="1.1" viewBox="0 0 460 507" width="460.4167px" zoomAndPan="magnify"><defs/><g><!--entity Proxy--><g id="elem_Proxy"><polygon fill="#666666" points="151.5625,17.7083,151.5625,17.9273,161.1111,17.2767,170.6597,17.9097,180.2083,18.1247,189.7569,16.9652,199.3056,17.6274,208.8542,17.7083,208.7975,17.5715,209.3925,17.8294,210.0236,18.1746,210.5301,18.2188,211.2848,18.8622,211.8004,18.9287,211.5983,18.845,211.9811,19.4917,212.4272,20.1646,212.5052,20.6851,212.7986,21.2948,213.0208,21.875,213.0097,21.875,213.0828,29.3685,213.1039,36.862,213.2242,44.3555,213.2538,51.849,213.0208,59.3424,213.2387,59.4327,212.8584,59.9655,212.6814,60.5826,212.5139,61.2035,211.8132,61.6036,211.8004,62.2887,211.8906,62.5064,211.1718,62.4377,210.6929,62.9481,209.9669,62.8622,209.4343,63.2431,208.8542,63.5091,208.8542,64.2816,199.3056,63.4583,189.7569,63.6188,180.2083,63.8619,170.6597,63.9427,161.1111,63.505,151.5625,63.5091,151.6007,63.6013,150.8972,63.0814,150.4218,63.1122,149.8676,62.9527,149.2645,62.6754,148.6162,62.2887,148.8129,62.3702,148.2172,61.6353,147.9189,61.0236,147.6846,60.4384,147.621,59.9239,147.3958,59.3424,147.3276,59.3424,147.6324,51.849,147.3352,44.3555,147.2767,36.862,147.4751,29.3685,147.3958,21.875,147.1819,21.7864,147.4734,21.2168,148.0922,20.7827,148.2678,20.1651,148.6078,19.6156,148.6162,18.9287,148.5735,18.8255,149.2479,18.787,149.8732,18.63,150.3212,18.0449,150.9605,17.9217,151.5625,17.7083" style="stroke:#333333;stroke-width:2.0833333333333335;"/><text fill="#FFFFFF" font-family="&quot;Segoe Print&quot;" font-size="12.5" lengthAdjust="spacing" textLength="34.375" x="163.0208" y="44.9361">Proxy</text></g><!--entity Wrapped--><g id="elem_Wrapped"><polygon fill="#666666" points="139.5833,126.0417,139.5833,126.2606,149.7396,125.6101,159.8958,126.243,170.0521,126.458,180.2083,125.2985,190.3646,125.9607,200.5208,125.5974,210.6771,125.6422,220.8333,126.0417,220.8243,126.0198,221.3307,126.064,222.0854,126.7074,222.5174,126.5717,223.1641,126.9545,223.7796,127.2621,223.9182,127.3195,223.9962,127.8399,224.2897,128.4496,224.5016,129.0256,224.8132,129.6428,225,130.2083,225.083,130.2083,225.2034,137.7018,225.233,145.1953,225.2359,152.6888,225.0884,160.1823,225,167.6758,225.1487,167.7374,224.9812,168.3583,224.2805,168.7585,224.4854,169.5337,223.9286,169.9934,223.7796,170.6221,223.8505,170.7933,223.1246,170.7073,222.592,171.0882,222.1104,171.5922,221.4161,171.5827,220.8333,171.8424,220.8333,171.9521,210.6771,172.1952,200.5208,172.276,190.3646,171.8384,180.2083,172.1416,170.0521,171.2462,159.8958,172.1387,149.7396,172.4135,139.5833,171.8424,139.6424,171.9851,139.0755,171.795,138.3406,171.1993,137.7289,170.901,137.1437,170.6668,136.6371,170.6221,136.6182,170.6142,136.3299,170.0067,136.3675,169.5341,135.8488,168.8311,135.5507,168.2195,135.4167,167.6758,135.4959,167.6758,135.1851,160.1823,135.2364,152.6888,135.642,145.1953,135.5679,137.7018,135.4167,130.2083,135.6523,130.3059,135.5575,129.5763,136.0072,129.0722,136.3383,128.519,136.2414,127.7885,136.6371,127.2621,136.6243,127.2313,137.2431,127.0584,137.9022,126.983,138.4043,126.5285,139.0555,126.4341,139.5833,126.0417" style="stroke:#333333;stroke-width:2.0833333333333335;"/><text fill="#FFFFFF" font-family="&quot;Segoe Print&quot;" font-size="12.5" lengthAdjust="spacing" textLength="58.3333" x="151.0417" y="153.2694">Wrapped</text></g><!--entity Frozen--><g id="elem_Frozen"><polygon fill="#666666" points="92.1875,234.375,92.1875,234.5939,103.125,233.9434,114.0625,234.5763,125,234.7913,135.9375,233.6319,146.875,234.294,157.8125,234.375,157.7558,234.2382,158.3508,234.4961,158.982,234.8413,159.4884,234.8854,160.2431,235.5289,160.7588,235.5954,160.5566,235.5116,160.9394,236.1584,161.3855,236.8313,161.4635,237.3518,161.757,237.9615,161.9792,238.5417,161.9681,238.5417,162.0412,246.0352,162.0622,253.5286,162.1825,261.0221,162.2122,268.5156,161.9792,276.0091,162.1971,276.0994,161.8168,276.6322,161.6397,277.2492,161.4722,277.8702,160.7715,278.2703,160.7588,278.9554,160.8489,279.1731,160.1301,279.1044,159.6512,279.6148,158.9252,279.5288,158.3927,279.9097,157.8125,280.1758,157.8125,280.9483,146.875,280.125,135.9375,280.2855,125,280.5285,114.0625,280.6094,103.125,280.1717,92.1875,280.1758,92.2257,280.2679,91.5222,279.7481,91.0468,279.7789,90.4926,279.6194,89.8895,279.3421,89.2412,278.9554,89.4379,279.0368,88.8422,278.3019,88.5439,277.6902,88.3096,277.1051,88.246,276.5905,88.0208,276.0091,87.9526,276.0091,88.2574,268.5156,87.9602,261.0221,87.9017,253.5286,88.1001,246.0352,88.0208,238.5417,87.8069,238.4531,88.0984,237.8834,88.7172,237.4494,88.8928,236.8318,89.2328,236.2822,89.2412,235.5954,89.1985,235.4922,89.8729,235.4537,90.4982,235.2966,90.9462,234.7116,91.5855,234.5883,92.1875,234.375" style="stroke:#333333;stroke-width:2.0833333333333335;"/><text fill="#FFFFFF" font-family="&quot;Segoe Print&quot;" font-size="12.5" lengthAdjust="spacing" textLength="42.7083" x="103.6458" y="261.6028">Frozen</text></g><!--entity Private--><g id="elem_Private"><polygon fill="#666666" points="202.6042,234.375,202.6042,234.5939,212.2768,233.9434,221.9494,234.5763,231.622,234.7913,241.2946,233.6319,250.9673,234.294,260.6399,233.9307,270.3125,234.375,270.2615,234.252,270.8927,234.5972,271.3991,234.6414,272.1538,235.2848,272.5858,235.1491,273.2588,235.5954,273.1953,235.5691,273.6414,236.242,273.7194,236.7625,274.0129,237.3722,274.2248,237.9482,274.4792,238.5417,274.5412,238.5417,274.5622,246.0352,274.6825,253.5286,274.7122,261.0221,274.715,268.5156,274.4792,276.0091,274.5608,276.0429,274.3838,276.66,274.2163,277.2809,273.5156,277.6811,273.7205,278.4563,273.2588,278.9554,273.2194,278.8603,272.7405,279.3707,272.0145,279.2847,271.4819,279.6657,271.0003,280.1696,270.3125,280.1758,270.3125,280.125,260.6399,280.2855,250.9673,280.5285,241.2946,280.6094,231.622,280.1717,221.9494,280.475,212.2768,279.5795,202.6042,280.1758,202.642,280.267,202.0878,280.1076,201.4847,279.8302,200.9179,279.6402,200.183,279.0445,199.6579,278.9554,199.4487,278.8687,199.2145,278.2836,199.1508,277.7691,198.8626,277.1615,198.9002,276.6889,198.4375,276.0091,198.3768,276.0091,198.3184,268.5156,198.5168,261.0221,198.206,253.5286,198.2572,246.0352,198.4375,238.5417,198.6457,238.6279,198.8213,238.0103,199.1613,237.4608,199.0665,236.7311,199.5162,236.2271,199.6579,235.5954,199.7363,235.7848,200.1844,235.1998,200.8237,235.0765,201.4424,234.9036,202.1015,234.8282,202.6042,234.375" style="stroke:#333333;stroke-width:2.0833333333333335;"/><text fill="#FFFFFF" font-family="&quot;Segoe Print&quot;" font-size="12.5" lengthAdjust="spacing" textLength="44.7917" x="214.0625" y="261.6028">Private</text></g><!--entity PrivacyDict--><g id="elem_PrivacyDict"><polygon fill="#666666" points="43.2292,342.7083,43.2292,342.9273,53.5301,342.2767,63.831,342.9097,74.1319,343.1247,84.4329,341.9652,94.7338,342.6274,105.0347,342.2641,115.3356,342.3089,125.6366,342.6373,135.9375,342.7083,135.8456,342.4865,136.6003,343.13,137.0323,342.9943,137.679,343.3771,138.3519,343.8232,138.8838,343.9287,138.8563,343.9173,139.1497,344.527,139.3617,345.103,139.6733,345.7202,139.9368,346.3175,140.1042,346.875,140.3075,346.875,140.3372,354.3685,140.34,361.862,140.1926,369.3555,140.2651,376.849,140.1042,384.3424,140.3294,384.4358,139.6287,384.8359,139.8337,385.6111,139.2768,386.0708,139.2991,386.7704,138.8838,387.2887,138.818,387.1299,138.2854,387.5108,137.8038,388.0148,137.1095,388.0053,136.5407,388.2988,135.9375,388.5091,135.9375,388.8619,125.6366,388.9427,115.3356,388.505,105.0347,388.8083,94.7338,387.9128,84.4329,388.8054,74.1319,389.0802,63.831,388.9722,53.5301,389.1477,43.2292,388.5091,43.165,388.3541,42.5533,388.0558,41.9681,387.8216,41.4536,387.758,40.846,387.4698,40.2829,387.2887,40.5015,387.3793,39.9828,386.6763,39.6847,386.0646,39.6239,385.5513,39.0927,384.8431,39.0625,384.3424,38.8822,384.3424,39.2878,376.849,39.2138,369.3555,39.3175,361.862,38.9508,354.3685,39.0625,346.875,39.1649,346.9174,39.496,346.3642,39.3991,345.6337,39.764,345.0945,40.0792,344.5347,40.2829,343.9287,40.3695,344.1378,40.8716,343.6833,41.5229,343.589,41.9771,343.0188,42.5499,342.7352,43.2292,342.7083" style="stroke:#333333;stroke-width:2.0833333333333335;"/><text fill="#FFFFFF" font-family="&quot;Segoe Print&quot;" font-size="12.5" lengthAdjust="spacing" textLength="69.7917" x="54.6875" y="369.9361">PrivacyDict</text></g><!--entity FrozenPrivacyDict--><g id="elem_FrozenPrivacyDict"><polygon fill="#666666" points="21.875,451.0417,21.875,451.2606,32.2917,450.6101,42.7083,451.243,53.125,451.458,63.5417,450.2985,73.9583,450.9607,84.375,450.5974,94.7917,450.6422,105.2083,450.9707,115.625,450.3215,126.0417,451.6184,136.4583,450.3851,146.875,450.8357,157.2917,451.0417,157.3491,451.1802,157.8695,451.2582,158.4792,451.5517,159.0552,451.7637,159.6724,452.0752,160.2379,452.2621,160.3147,452.2938,160.6699,452.9291,160.9414,453.5297,161.1881,454.1201,161.2959,454.6529,161.4583,455.2083,161.6193,455.2083,161.7022,462.7018,161.2079,470.1953,161.6939,477.6888,161.3554,485.1823,161.4583,492.6758,161.6296,492.7467,161.0555,493.1993,160.9482,493.8452,160.964,494.5421,160.4664,495.0263,160.2379,495.6221,160.2519,495.6558,159.6937,495.9748,159.1147,496.2437,158.4697,496.353,157.9191,496.6905,157.2917,496.8424,157.2917,496.2462,146.875,497.1387,136.4583,497.4135,126.0417,497.3055,115.625,497.481,105.2083,496.3392,94.7917,496.1631,84.375,496.1952,73.9583,496.7811,63.5417,496.6377,53.125,497.5523,42.7083,496.6605,32.2917,496.4851,21.875,496.8424,21.9053,496.9157,21.1971,496.3845,20.6275,496.1878,20.1935,496.3184,19.5759,496.0059,18.9287,495.6221,19.1643,495.7197,18.5814,494.99,18.543,494.486,18.3859,493.9327,17.8009,493.2023,17.7083,492.6758,17.675,492.6758,17.7521,485.1823,17.9346,477.6888,17.7069,470.1953,17.8689,462.7018,17.7083,455.2083,17.5307,455.1347,17.7352,454.5291,18.358,454.0967,18.2106,453.3453,18.8479,452.9189,18.9287,452.2621,18.9562,452.3283,19.4824,451.932,20.0602,451.6604,20.7574,451.677,21.246,451.1897,21.875,451.0417" style="stroke:#333333;stroke-width:2.0833333333333335;"/><text fill="#FFFFFF" font-family="&quot;Segoe Print&quot;" font-size="12.5" lengthAdjust="spacing" textLength="112.5" x="33.3333" y="478.2694">FrozenPrivacyDict</text></g><!--entity FrozenPrivate--><g id="elem_FrozenPrivate"><polygon fill="#666666" points="181.25,342.7083,181.25,342.9273,191.2879,342.2767,201.3258,342.9097,211.3636,343.1247,221.4015,341.9652,231.4394,342.6274,241.4773,342.2641,251.5152,342.3089,261.553,342.6373,271.5909,341.9882,281.6288,343.285,291.6667,342.7083,291.5829,342.5061,292.2296,342.889,292.9026,343.3351,293.423,343.413,294.0328,343.7065,294.6129,343.9287,294.6027,343.9245,294.9143,344.5417,295.1778,345.139,295.5331,345.7743,295.8045,346.3749,295.8333,346.875,296.0692,346.875,295.9217,354.3685,295.9943,361.862,296.0772,369.3555,295.5829,376.849,295.8333,384.3424,296.051,384.4326,295.4941,384.8923,295.5164,385.5919,294.9423,386.0444,294.835,386.6904,294.6129,387.2887,294.7115,387.5266,294.0172,387.5172,293.4484,387.8107,292.8902,388.1296,292.3112,388.3986,291.6667,388.5091,291.6667,388.505,281.6288,388.8083,271.5909,387.9128,261.553,388.8054,251.5152,389.0802,241.4773,388.9722,231.4394,389.1477,221.4015,388.0059,211.3636,387.8298,201.3258,387.8618,191.2879,388.4478,181.25,388.5091,181.2239,388.4461,180.7513,388.4836,180.0483,387.9649,179.4366,387.6668,178.9233,387.606,178.3037,387.2887,178.0898,387.2001,177.8931,386.6305,178.0237,386.1964,177.7112,385.5788,177.563,385.0293,177.0833,384.3424,176.9716,384.3424,177.1942,376.849,177.2883,369.3555,176.9193,361.862,177.05,354.3685,177.0833,346.875,177.1237,346.8917,177.5365,346.3723,177.5701,345.6959,177.964,345.1687,177.882,344.4444,178.3037,343.9287,178.2137,343.7115,178.9599,343.8462,179.387,343.2106,180.1391,343.3598,180.6882,343.0187,181.25,342.7083" style="stroke:#333333;stroke-width:2.0833333333333335;"/><text fill="#FFFFFF" font-family="&quot;Segoe Print&quot;" font-size="12.5" lengthAdjust="spacing" textLength="87.5" x="192.7083" y="369.9361">FrozenPrivate</text></g><!--entity Protected--><g id="elem_Protected"><polygon fill="#666666" points="336.4583,342.7083,336.4583,342.9273,347.3958,342.2767,358.3333,342.9097,369.2708,343.1247,380.2083,341.9652,391.1458,342.6274,402.0833,342.2641,413.0208,342.3089,423.9583,342.7083,423.9493,342.6865,424.4557,342.7306,425.2104,343.3741,425.6424,343.2384,426.2891,343.6212,426.9046,343.9287,427.0432,343.9861,427.1212,344.5066,427.4147,345.1163,427.6266,345.6922,427.9382,346.3095,428.125,346.875,428.208,346.875,428.3284,354.3685,428.358,361.862,428.3609,369.3555,428.2134,376.849,428.125,384.3424,428.2737,384.404,428.1062,385.025,427.4055,385.4251,427.6104,386.2004,427.0536,386.6601,426.9046,387.2887,426.9755,387.46,426.2496,387.374,425.717,387.7549,425.2354,388.2589,424.5411,388.2494,423.9583,388.5091,423.9583,388.6188,413.0208,388.8619,402.0833,388.9427,391.1458,388.505,380.2083,388.8083,369.2708,387.9128,358.3333,388.8054,347.3958,389.0802,336.4583,388.5091,336.5174,388.6517,335.9505,388.4617,335.2156,387.866,334.6039,387.5677,334.0187,387.3335,333.5121,387.2887,333.4932,387.2809,333.2049,386.6734,333.2425,386.2008,332.7238,385.4977,332.4257,384.8861,332.2917,384.3424,332.3709,384.3424,332.0601,376.849,332.1114,369.3555,332.517,361.862,332.4429,354.3685,332.2917,346.875,332.5273,346.9726,332.4325,346.243,332.8822,345.7389,333.2133,345.1857,333.1164,344.4552,333.5121,343.9287,333.4993,343.898,334.1181,343.7251,334.7772,343.6496,335.2793,343.1951,335.9305,343.1008,336.4583,342.7083" style="stroke:#333333;stroke-width:2.0833333333333335;"/><text fill="#FFFFFF" font-family="&quot;Segoe Print&quot;" font-size="12.5" lengthAdjust="spacing" textLength="64.5833" x="347.9167" y="369.9361">Protected</text></g><!--entity FrozenProtected--><g id="elem_FrozenProtected"><polygon fill="#666666" points="315.1042,451.0417,315.1042,451.2606,325.1202,450.6101,335.1362,451.243,345.1522,451.458,355.1683,450.2985,365.1843,450.9607,375.2003,450.5974,385.2163,450.6422,395.2324,450.9707,405.2484,450.3215,415.2644,451.6184,425.2804,450.3851,435.2965,450.8357,445.3125,451.0417,445.3699,451.1802,445.8904,451.2582,446.5001,451.5517,447.076,451.7637,447.6932,452.0752,448.2588,452.2621,448.3355,452.2938,448.6907,452.9291,448.9622,453.5297,449.2089,454.1201,449.3168,454.6529,449.4792,455.2083,449.6401,455.2083,449.723,462.7018,449.2288,470.1953,449.7148,477.6888,449.3762,485.1823,449.4792,492.6758,449.6504,492.7467,449.0763,493.1993,448.969,493.8452,448.9848,494.5421,448.4872,495.0263,448.2588,495.6221,448.2728,495.6558,447.7145,495.9748,447.1356,496.2437,446.4905,496.353,445.9399,496.6905,445.3125,496.8424,445.3125,496.2462,435.2965,497.1387,425.2804,497.4135,415.2644,497.3055,405.2484,497.481,395.2324,496.3392,385.2163,496.1631,375.2003,496.1952,365.1843,496.7811,355.1683,496.6377,345.1522,497.5523,335.1362,496.6605,325.1202,496.4851,315.1042,496.8424,315.1345,496.9157,314.4263,496.3845,313.8567,496.1878,313.4226,496.3184,312.805,496.0059,312.1579,495.6221,312.3935,495.7197,311.8106,494.99,311.7721,494.486,311.6151,493.9327,311.03,493.2023,310.9375,492.6758,310.9042,492.6758,310.9812,485.1823,311.1638,477.6888,310.936,470.1953,311.0981,462.7018,310.9375,455.2083,310.7599,455.1347,310.9643,454.5291,311.5872,454.0967,311.4397,453.3453,312.0771,452.9189,312.1579,452.2621,312.1853,452.3283,312.7115,451.932,313.2894,451.6604,313.9866,451.677,314.4751,451.1897,315.1042,451.0417" style="stroke:#333333;stroke-width:2.0833333333333335;"/><text fill="#FFFFFF" font-family="&quot;Segoe Print&quot;" font-size="12.5" lengthAdjust="spacing" textLength="107.2917" x="326.5625" y="478.2694">FrozenProtected</text></g><!--link Proxy to Wrapped--><g id="link_Proxy_Wrapped"><path d="M180.2083,63.6771 L180.5003,63.6771 L179.6329,75.0646 L180.4768,86.4521 L180.7634,97.8396 L179.2175,109.2271 L180.2083,120.6146 " fill="none" style="stroke:#333333;stroke-width:3.125;"/><polygon fill="#333333" points="180.2083,125.9271,180.275,125.9567,180.9102,123.9937,181.9363,122.2043,182.8351,120.3584,183.3153,118.3265,184.375,116.5521,184.3559,116.533,183.437,117.2807,182.6142,118.1246,181.8583,119.0353,180.8719,119.7157,180.2083,120.7188,180.3443,120.8547,179.2203,119.7307,178.4931,119.0035,177.8144,118.3248,176.8539,117.3644,176.0417,116.5521,176.0633,116.5617,176.8649,118.4226,177.765,120.3273,178.6175,122.2108,179.5608,124.1347,180.2083,125.9271" style="stroke:#333333;stroke-width:3.125;"/></g><!--link Wrapped to Frozen--><g id="link_Wrapped_Frozen"><path d="M168.7708,172.0104 L169.0299,172.145 L163.2897,181.3111 L159.0681,191.2661 L154.352,200.9643 L148.0097,209.8175 L143.8226,219.7905 L138.9479,229.4063 " fill="none" style="stroke:#333333;stroke-width:3.125;"/><polygon fill="#333333" points="136.4271,234.2604,136.4727,234.3174,137.9392,232.8661,139.6731,231.7488,141.3199,230.5228,142.6805,228.939,144.4373,227.8504,144.4292,227.8247,143.2693,228.0662,142.1507,228.4374,141.0607,228.8987,139.872,229.0494,138.8215,229.6351,139.0047,229.6933,138.256,228.4457,138.0422,227.368,137.8937,226.3111,137.3654,225.1335,137.0368,224.0193,137.0605,224.0207,136.9038,226.0669,136.8548,228.1194,136.7539,230.1689,136.752,232.2243,136.4271,234.2604" style="stroke:#333333;stroke-width:3.125;"/></g><!--link Wrapped to Private--><g id="link_Wrapped_Private"><path d="M191.8646,172.0104 L192.1226,172.147 L196.4202,181.3071 L202.2303,191.268 L207.5479,200.9681 L211.2458,209.8107 L217.0904,219.7898 L222.25,229.4063 " fill="none" style="stroke:#333333;stroke-width:3.125;"/><polygon fill="#333333" points="224.8229,234.2604,224.8957,234.2655,224.5365,232.2035,224.604,230.1714,224.5326,228.1295,224.0041,226.0557,224.1083,224.0261,224.0825,224.0182,223.6213,225.1095,223.2901,226.2406,223.0494,227.3994,222.4971,228.4628,222.3812,229.6599,222.4376,229.8437,221.1903,229.1052,220.1076,228.9034,219.0449,228.7671,217.8655,228.2498,216.7474,227.9328,216.762,227.9515,218.3557,229.1896,220.0159,230.5127,221.6439,231.7947,223.3332,233.155,224.8229,234.2604" style="stroke:#333333;stroke-width:3.125;"/></g><!--link Private to PrivacyDict--><g id="link_Private_PrivacyDict"><path d="M206.0208,280.3438 L206.1919,280.5803 L197.5012,285.7973 L189.8136,292.4008 L181.7993,298.5529 L172.7109,303.2202 L165.0461,309.8553 L156.5799,315.3826 L148.4326,321.3508 L140.507,327.6254 L131.8174,332.8439 L124.1979,339.5417 " fill="none" style="stroke:#333333;stroke-width:3.125;"/><polygon fill="#333333" points="119.9792,342.5938,119.9942,342.6652,121.9576,342.0312,124.009,341.816,126.0318,341.4644,127.9604,340.6645,130.0194,340.4852,130.0151,340.4585,128.8323,340.151,127.6713,339.9778,126.5253,339.898,125.3274,339.4964,124.2022,339.5454,124.392,339.5761,124.1741,338.3471,124.5104,337.2076,124.9142,336.079,124.9247,334.8869,125.142,333.7283,125.1625,333.7402,124.0999,335.4958,123.1304,337.3057,122.1161,339.0893,121.1875,340.923,119.9792,342.5938" style="stroke:#333333;stroke-width:3.125;"/></g><!--link Private to FrozenPrivate--><g id="link_Private_FrozenPrivate"><path d="M236.4583,280.3438 L236.7503,280.3438 L235.8829,291.7313 L236.7268,303.1188 L237.0134,314.5063 L235.4675,325.8937 L236.4583,337.2813 " fill="none" style="stroke:#333333;stroke-width:3.125;"/><polygon fill="#333333" points="236.4583,342.5938,236.525,342.6234,237.1602,340.6603,238.1863,338.871,239.0851,337.0251,239.5653,334.9931,240.625,333.2188,240.6059,333.1997,239.687,333.9474,238.8642,334.7913,238.1083,335.702,237.1219,336.3823,236.4583,337.3854,236.5943,337.5213,235.4703,336.3973,234.7431,335.6702,234.0644,334.9915,233.1039,334.031,232.2917,333.2188,232.3133,333.2284,233.1149,335.0892,234.015,336.9939,234.8675,338.8775,235.8108,340.8013,236.4583,342.5938" style="stroke:#333333;stroke-width:3.125;"/></g><!--link Private to Protected--><g id="link_Private_Protected"><path d="M266.2396,280.3438 L266.4131,280.5785 L273.8757,285.7779 L282.3554,292.3534 L290.5039,298.4808 L297.5631,303.1345 L306.0661,309.7413 L313.7562,315.2486 L321.7699,321.1935 L330.0083,327.4426 L337.472,332.6434 L346.0208,339.3125 " fill="none" style="stroke:#333333;stroke-width:3.125;"/><polygon fill="#333333" points="350.4583,342.5938,350.5218,342.6298,349.319,340.739,348.4881,339.0597,347.5361,337.3115,346.1859,335.3368,345.3869,333.6757,345.3602,333.6716,345.4165,334.8188,345.6072,335.9864,345.8915,337.168,345.8535,338.301,346.2668,339.5021,346.2955,339.6922,345.0689,339.4617,343.926,339.7862,342.7933,340.1784,341.6012,340.1766,340.4403,340.3821,340.4454,340.4052,342.4415,340.8136,344.4609,341.3273,346.469,341.7902,348.4986,342.35,350.4583,342.5938" style="stroke:#333333;stroke-width:3.125;"/></g><!--link PrivacyDict to FrozenPrivacyDict--><g id="link_PrivacyDict_FrozenPrivacyDict"><path d="M89.5833,388.6771 L89.8753,388.6771 L89.0079,400.0646 L89.8518,411.4521 L90.1384,422.8396 L88.5925,434.2271 L89.5833,445.6146 " fill="none" style="stroke:#333333;stroke-width:3.125;"/><polygon fill="#333333" points="89.5833,450.9271,89.65,450.9567,90.2852,448.9937,91.3113,447.2043,92.2101,445.3584,92.6903,443.3265,93.75,441.5521,93.7309,441.533,92.812,442.2807,91.9892,443.1246,91.2333,444.0353,90.2469,444.7157,89.5833,445.7188,89.7193,445.8547,88.5953,444.7307,87.8681,444.0035,87.1894,443.3248,86.2289,442.3644,85.4167,441.5521,85.4383,441.5617,86.2399,443.4226,87.14,445.3273,87.9925,447.2108,88.9358,449.1347,89.5833,450.9271" style="stroke:#333333;stroke-width:3.125;"/></g><!--link Protected to FrozenProtected--><g id="link_Protected_FrozenProtected"><path d="M380.2083,388.6771 L380.5003,388.6771 L379.6329,400.0646 L380.4768,411.4521 L380.7634,422.8396 L379.2175,434.2271 L380.2083,445.6146 " fill="none" style="stroke:#333333;stroke-width:3.125;"/><polygon fill="#333333" points="380.2083,450.9271,380.275,450.9567,380.9102,448.9937,381.9363,447.2043,382.8351,445.3584,383.3153,443.3265,384.375,441.5521,384.3559,441.533,383.437,442.2807,382.6142,443.1246,381.8583,444.0353,380.8719,444.7157,380.2083,445.7188,380.3443,445.8547,379.2203,444.7307,378.4931,444.0035,377.8144,443.3248,376.8539,442.3644,376.0417,441.5521,376.0633,441.5617,376.8649,443.4226,377.765,445.3273,378.6175,447.2108,379.5608,449.1347,380.2083,450.9271" style="stroke:#333333;stroke-width:3.125;"/></g><!--SRC=[XO-zSiCW48JxUufBfKf-W1Hfd4cTBlKPtKZO_0qWZSdJ6tcm38fdKi7ktXuV7HuzKsGKYa8O98sUz24i8yv1cX65rPhCy0uTdcaXxC_aqIaoSTRgi8e-hjDDtUKCkhSuiMOygPcpcw3eSE4efhJbmP5WHIU0S976KLw0IXgEoJ4wgz8ge7iHMXyd2mYUHIGpAiPlRw-fqZ-UdEEXShwy_MNJLEII_xztHFgK8luf_fljDjcOnGk0Pm9tPkpxZussd7UlyDRMunqebwTPm6g_HMiR5S9MtfUsbMMuoHyBRW00]--></g></svg>