<?xml version="1.0" encoding="UTF-8" standalone="no"?><svg xmlns="http://www.w3.org/2000/svg" xmlns:xlink="http://www.w3.org/1999/xlink" contentStyleType="text/css" height="538.5417px" preserveAspectRatio="none" style="width:479px;height:538px;" version="1.1" viewBox="0 0 479 538" width="479.1667px" zoomAndPan="magnify"><defs><linearGradient id="gif9z9y2etx5g0" x1="50%" x2="50%" y1="0%" y2="100%"><stop offset="0%" stop-color="#FFFFFF"/><stop offset="100%" stop-color="#FEFEFE"/></linearGradient></defs><g><!--entity Proxy--><g id="elem_Proxy"><rect fill="url(#gif9z9y2etx5g0)" height="52.0508" rx="4.1667" ry="4.1667" style="stroke:#C2C2C2;stroke-width:2.0833333333333335;" width="71.875" x="150.5208" y="17.7083"/><text fill="#5A5A5A" font-family="&quot;Verdana&quot;" font-size="12.5" lengthAdjust="spacing" textLength="34.375" x="169.2708" y="48.0611">Proxy</text></g><!--entity Wrapped--><g id="elem_Wrapped"><rect fill="url(#gif9z9y2etx5g0)" height="52.0508" rx="4.1667" ry="4.1667" style="stroke:#C2C2C2;stroke-width:2.0833333333333335;" width="95.8333" x="138.5417" y="132.2917"/><text fill="#5A5A5A" font-family="&quot;Verdana&quot;" font-size="12.5" lengthAdjust="spacing" textLength="58.3333" x="157.2917" y="162.6444">Wrapped</text></g><!--entity Frozen--><g id="elem_Frozen"><rect fill="url(#gif9z9y2etx5g0)" height="52.0508" rx="4.1667" ry="4.1667" style="stroke:#C2C2C2;stroke-width:2.0833333333333335;" width="80.2083" x="88.0208" y="246.875"/><text fill="#5A5A5A" font-family="&quot;Verdana&quot;" font-size="12.5" lengthAdjust="spacing" textLength="42.7083" x="106.7708" y="277.2278">Frozen</text></g><!--entity Private--><g id="elem_Private"><rect fill="url(#gif9z9y2etx5g0)" height="52.0508" rx="4.1667" ry="4.1667" style="stroke:#C2C2C2;stroke-width:2.0833333333333335;" width="82.2917" x="204.6875" y="246.875"/><text fill="#5A5A5A" font-family="&quot;Verdana&quot;" font-size="12.5" lengthAdjust="spacing" textLength="44.7917" x="223.4375" y="277.2278">Private</text></g><!--entity PrivacyDict--><g id="elem_PrivacyDict"><rect fill="url(#gif9z9y2etx5g0)" height="52.0508" rx="4.1667" ry="4.1667" style="stroke:#C2C2C2;stroke-width:2.0833333333333335;" width="107.2917" x="39.0625" y="361.4583"/><text fill="#5A5A5A" font-family="&quot;Verdana&quot;" font-size="12.5" lengthAdjust="spacing" textLength="69.7917" x="57.8125" y="391.8111">PrivacyDict</text></g><!--entity FrozenPrivacyDict--><g id="elem_FrozenPrivacyDict"><rect fill="url(#gif9z9y2etx5g0)" height="52.0508" rx="4.1667" ry="4.1667" style="stroke:#C2C2C2;stroke-width:2.0833333333333335;" width="150" x="17.7083" y="476.0417"/><text fill="#5A5A5A" font-family="&quot;Verdana&quot;" font-size="12.5" lengthAdjust="spacing" textLength="112.5" x="36.4583" y="506.3944">FrozenPrivacyDict</text></g><!--entity FrozenPrivate--><g id="elem_FrozenPrivate"><rect fill="url(#gif9z9y2etx5g0)" height="52.0508" rx="4.1667" ry="4.1667" style="stroke:#C2C2C2;stroke-width:2.0833333333333335;" width="125" x="183.3333" y="361.4583"/><text fill="#5A5A5A" font-family="&quot;Verdana&quot;" font-size="12.5" lengthAdjust="spacing" textLength="87.5" x="202.0833" y="391.8111">FrozenPrivate</text></g><!--entity Protected--><g id="elem_Protected"><rect fill="url(#gif9z9y2etx5g0)" height="52.0508" rx="4.1667" ry="4.1667" style="stroke:#C2C2C2;stroke-width:2.0833333333333335;" width="102.0833" x="344.7917" y="361.4583"/><text fill="#5A5A5A" font-family="&quot;Verdana&quot;" font-size="12.5" lengthAdjust="spacing" textLength="64.5833" x="363.5417" y="391.8111">Protected</text></g><!--entity FrozenProtected--><g id="elem_FrozenProtected"><rect fill="url(#gif9z9y2etx5g0)" height="52.0508" rx="4.1667" ry="4.1667" style="stroke:#C2C2C2;stroke-width:2.0833333333333335;" width="144.7917" x="323.4375" y="476.0417"/><text fill="#5A5A5A" font-family="&quot;Verdana&quot;" font-size="12.5" lengthAdjust="spacing" textLength="107.2917" x="342.1875" y="506.3944">FrozenProtected</text></g><!--link Proxy to Wrapped--><g id="link_Proxy_Wrapped"><path d="M186.4583,70.0417 C186.4583,86.8333 186.4583,108.9792 186.4583,126.7604 " fill="none" id="Proxy-to-Wrapped" style="stroke:#009FDB;stroke-width:3.125;"/><polygon fill="#009FDB" points="186.4583,132.125,190.625,122.75,186.4583,126.9167,182.2917,122.75,186.4583,132.125" style="stroke:#009FDB;stroke-width:3.125;"/></g><!--link Wrapped to Frozen--><g id="link_Wrapped_Frozen"><path d="M173.3646,184.625 C164.5833,201.5625 152.9792,223.9479 143.7188,241.8021 " fill="none" id="Wrapped-to-Frozen" style="stroke:#009FDB;stroke-width:3.125;"/><polygon fill="#009FDB" points="141.1771,246.7083,149.1873,240.2984,143.5715,242.083,141.7868,236.4672,141.1771,246.7083" style="stroke:#009FDB;stroke-width:3.125;"/></g><!--link Wrapped to Private--><g id="link_Wrapped_Private"><path d="M199.7813,184.625 C208.7188,201.5625 220.5417,223.9479 229.9583,241.8021 " fill="none" id="Wrapped-to-Private" style="stroke:#009FDB;stroke-width:3.125;"/><polygon fill="#009FDB" points="232.5521,246.7083,231.8374,236.474,230.1104,242.1078,224.4766,240.3808,232.5521,246.7083" style="stroke:#009FDB;stroke-width:3.125;"/></g><!--link Private to PrivacyDict--><g id="link_Private_PrivacyDict"><path d="M211.4688,299.2083 C187.625,316.7188 155.8542,340.0625 131.1667,358.1979 " fill="none" id="Private-to-PrivacyDict" style="stroke:#009FDB;stroke-width:3.125;"/><polygon fill="#009FDB" points="126.9583,361.2917,136.9763,359.08,131.1498,358.2001,132.0298,352.3736,126.9583,361.2917" style="stroke:#009FDB;stroke-width:3.125;"/></g><!--link Private to FrozenPrivate--><g id="link_Private_FrozenPrivate"><path d="M245.8333,299.2083 C245.8333,316 245.8333,338.1458 245.8333,355.9271 " fill="none" id="Private-to-FrozenPrivate" style="stroke:#009FDB;stroke-width:3.125;"/><polygon fill="#009FDB" points="245.8333,361.2917,250,351.9167,245.8333,356.0833,241.6667,351.9167,245.8333,361.2917" style="stroke:#009FDB;stroke-width:3.125;"/></g><!--link Private to Protected--><g id="link_Private_Protected"><path d="M279.5,299.2083 C302.75,316.6458 333.7188,339.875 357.8542,357.9792 " fill="none" id="Private-to-Protected" style="stroke:#009FDB;stroke-width:3.125;"/><polygon fill="#009FDB" points="362.2813,361.2917,357.2813,352.3333,358.1146,358.1667,352.2813,359,362.2813,361.2917" style="stroke:#009FDB;stroke-width:3.125;"/></g><!--link PrivacyDict to FrozenPrivacyDict--><g id="link_PrivacyDict_FrozenPrivacyDict"><path d="M92.7083,413.7917 C92.7083,430.5833 92.7083,452.7292 92.7083,470.5104 " fill="none" id="PrivacyDict-to-FrozenPrivacyDict" style="stroke:#009FDB;stroke-width:3.125;"/><polygon fill="#009FDB" points="92.7083,475.875,96.875,466.5,92.7083,470.6667,88.5417,466.5,92.7083,475.875" style="stroke:#009FDB;stroke-width:3.125;"/></g><!--link Protected to FrozenProtected--><g id="link_Protected_FrozenProtected"><path d="M395.8333,413.7917 C395.8333,430.5833 395.8333,452.7292 395.8333,470.5104 " fill="none" id="Protected-to-FrozenProtected" style="stroke:#009FDB;stroke-width:3.125;"/><polygon fill="#009FDB" points="395.8333,475.875,400,466.5,395.8333,470.6667,391.6667,466.5,395.8333,475.875" style="stroke:#009FDB;stroke-width:3.125;"/></g><!--SRC=[XO-zSiCW48Hxdk9IgP8V88KRPrAdStr6Dp8EVmCdZV7J6tcm38fdKi7ktXuV7Hm28HD8ZJ4E2iU0PXVd4QQex0ZI6ODs-1GTN716w2yOm6kqF1czMqJFotHJzpaJ7tmcGt3I4sKpYVYhhCSSWrQME7a2xtHQXEZUX2xmsGaGWIIZ7JN1Jt3NLEbZGEzfg9plu6vacugQy- -sZanVIlAVuh_PPfFZBDu0l1BnO8Q-tw-qvNnuXRUsdk-8SdcP1QpsMxIsKI6ivMrfNLc6c_ovu0u0]--></g></svg>