<?xml version="1.0" encoding="UTF-8" standalone="no"?><svg xmlns="http://www.w3.org/2000/svg" xmlns:xlink="http://www.w3.org/1999/xlink" contentScriptType="application/ecmascript" contentStyleType="text/css" height="439px" preserveAspectRatio="none" style="width:431px;height:439px;" version="1.1" viewBox="0 0 431 439" width="431px" zoomAndPan="magnify"><defs><filter height="300%" id="f1qyn1qa51j8xz" width="300%" x="-1" y="-1"><feGaussianBlur result="blurOut" stdDeviation="2.0"/><feColorMatrix in="blurOut" result="blurOut2" type="matrix" values="0 0 0 0 0 0 0 0 0 0 0 0 0 0 0 0 0 0 .4 0"/><feOffset dx="4.0" dy="4.0" in="blurOut2" result="blurOut3"/><feBlend in="SourceGraphic" in2="blurOut3" mode="normal"/></filter></defs><g><!--entity Proxy--><rect fill="#FEFECE" filter="url(#f1qyn1qa51j8xz)" height="36.2969" style="stroke: #000000; stroke-width: 1.5;" width="57" x="136.5" y="8"/><text fill="#000000" font-family="sans-serif" font-size="14" lengthAdjust="spacingAndGlyphs" textLength="37" x="146.5" y="30.9951">Proxy</text><!--entity Wrapped--><rect fill="#FEFECE" filter="url(#f1qyn1qa51j8xz)" height="36.2969" style="stroke: #000000; stroke-width: 1.5;" width="82" x="124" y="104"/><text fill="#000000" font-family="sans-serif" font-size="14" lengthAdjust="spacingAndGlyphs" textLength="62" x="134" y="126.9951">Wrapped</text><!--entity Frozen--><rect fill="#FEFECE" filter="url(#f1qyn1qa51j8xz)" height="36.2969" style="stroke: #000000; stroke-width: 1.5;" width="68" x="80" y="200"/><text fill="#000000" font-family="sans-serif" font-size="14" lengthAdjust="spacingAndGlyphs" textLength="48" x="90" y="222.9951">Frozen</text><!--entity Private--><rect fill="#FEFECE" filter="url(#f1qyn1qa51j8xz)" height="36.2969" style="stroke: #000000; stroke-width: 1.5;" width="66" x="183" y="200"/><text fill="#000000" font-family="sans-serif" font-size="14" lengthAdjust="spacingAndGlyphs" textLength="46" x="193" y="222.9951">Private</text><!--entity PrivacyDict--><rect fill="#FEFECE" filter="url(#f1qyn1qa51j8xz)" height="36.2969" style="stroke: #000000; stroke-width: 1.5;" width="94" x="30" y="296"/><text fill="#000000" font-family="sans-serif" font-size="14" lengthAdjust="spacingAndGlyphs" textLength="74" x="40" y="318.9951">PrivacyDict</text><!--entity FrozenPrivacyDict--><rect fill="#FEFECE" filter="url(#f1qyn1qa51j8xz)" height="36.2969" style="stroke: #000000; stroke-width: 1.5;" width="142" x="6" y="392"/><text fill="#000000" font-family="sans-serif" font-size="14" lengthAdjust="spacingAndGlyphs" textLength="122" x="16" y="414.9951">FrozenPrivacyDict</text><!--entity FrozenPrivate--><rect fill="#FEFECE" filter="url(#f1qyn1qa51j8xz)" height="36.2969" style="stroke: #000000; stroke-width: 1.5;" width="114" x="159" y="296"/><text fill="#000000" font-family="sans-serif" font-size="14" lengthAdjust="spacingAndGlyphs" textLength="94" x="169" y="318.9951">FrozenPrivate</text><!--entity Protected--><rect fill="#FEFECE" filter="url(#f1qyn1qa51j8xz)" height="36.2969" style="stroke: #000000; stroke-width: 1.5;" width="88" x="308" y="296"/><text fill="#000000" font-family="sans-serif" font-size="14" lengthAdjust="spacingAndGlyphs" textLength="68" x="318" y="318.9951">Protected</text><!--entity FrozenProtected--><rect fill="#FEFECE" filter="url(#f1qyn1qa51j8xz)" height="36.2969" style="stroke: #000000; stroke-width: 1.5;" width="136" x="284" y="392"/><text fill="#000000" font-family="sans-serif" font-size="14" lengthAdjust="spacingAndGlyphs" textLength="116" x="294" y="414.9951">FrozenProtected</text><!--link Proxy to Wrapped--><path d="M165,44.24 C165,59.48 165,81.81 165,98.46 " fill="none" id="Proxy-Wrapped" style="stroke: #A80036; stroke-width: 1.0;"/><polygon fill="#A80036" points="165,103.87,169,94.87,165,98.87,161,94.87,165,103.87" style="stroke: #A80036; stroke-width: 1.0;"/><!--link Wrapped to Frozen--><path d="M155.65,140.24 C147.23,155.74 134.84,178.59 125.76,195.32 " fill="none" id="Wrapped-Frozen" style="stroke: #A80036; stroke-width: 1.0;"/><polygon fill="#A80036" points="123.29,199.87,131.0962,193.8648,125.6733,195.4745,124.0635,190.0516,123.29,199.87" style="stroke: #A80036; stroke-width: 1.0;"/><!--link Wrapped to Private--><path d="M174.35,140.24 C182.77,155.74 195.16,178.59 204.24,195.32 " fill="none" id="Wrapped-Private" style="stroke: #A80036; stroke-width: 1.0;"/><polygon fill="#A80036" points="206.71,199.87,205.9365,190.0516,204.3267,195.4745,198.9038,193.8648,206.71,199.87" style="stroke: #A80036; stroke-width: 1.0;"/><!--link Private to PrivacyDict--><path d="M190.83,236.02 C167.16,252.03 131.73,275.99 106.69,292.92 " fill="none" id="Private-PrivacyDict" style="stroke: #A80036; stroke-width: 1.0;"/><polygon fill="#A80036" points="102.45,295.79,112.1437,294.0489,106.5881,292.9835,107.6534,287.4279,102.45,295.79" style="stroke: #A80036; stroke-width: 1.0;"/><!--link Private to FrozenPrivate--><path d="M216,236.24 C216,251.48 216,273.81 216,290.46 " fill="none" id="Private-FrozenPrivate" style="stroke: #A80036; stroke-width: 1.0;"/><polygon fill="#A80036" points="216,295.87,220,286.87,216,290.87,212,286.87,216,295.87" style="stroke: #A80036; stroke-width: 1.0;"/><!--link Private to Protected--><path d="M240.63,236.02 C263.78,252.03 298.45,275.99 322.95,292.92 " fill="none" id="Private-Protected" style="stroke: #A80036; stroke-width: 1.0;"/><polygon fill="#A80036" points="327.1,295.79,321.9695,287.383,322.9865,292.9477,317.4218,293.9646,327.1,295.79" style="stroke: #A80036; stroke-width: 1.0;"/><!--link PrivacyDict to FrozenPrivacyDict--><path d="M77,332.24 C77,347.48 77,369.81 77,386.46 " fill="none" id="PrivacyDict-FrozenPrivacyDict" style="stroke: #A80036; stroke-width: 1.0;"/><polygon fill="#A80036" points="77,391.87,81,382.87,77,386.87,73,382.87,77,391.87" style="stroke: #A80036; stroke-width: 1.0;"/><!--link Protected to FrozenProtected--><path d="M352,332.24 C352,347.48 352,369.81 352,386.46 " fill="none" id="Protected-FrozenProtected" style="stroke: #A80036; stroke-width: 1.0;"/><polygon fill="#A80036" points="352,391.87,356,382.87,352,386.87,348,382.87,352,391.87" style="stroke: #A80036; stroke-width: 1.0;"/><!--
@startuml
skinparam linetype polyline
'skinparam linetype ortho
 
rectangle Proxy
rectangle Wrapped
rectangle Frozen
rectangle Private
rectangle PrivacyDict
rectangle FrozenPrivacyDict
rectangle FrozenPrivate
rectangle Protected
rectangle FrozenProtected

Proxy - -> Wrapped
Wrapped - -> Frozen
Wrapped - -> Private

Private - -> PrivacyDict
Private - -> FrozenPrivate
Private - -> Protected

PrivacyDict - -> FrozenPrivacyDict
Protected - -> FrozenProtected

@enduml

PlantUML version 1.2017.18(Fri Oct 06 09:56:32 PDT 2017)
(GPL source distribution)
Java Runtime: OpenJDK Runtime Environment
JVM: OpenJDK 64-Bit Server VM
Java Version: 11.0.17+8-post-Ubuntu-1ubuntu222.04
Operating System: Linux
OS Version: 6.1.0
Default Encoding: UTF-8
Language: en
Country: US
--></g></svg>